<svg width="47" height="43" viewBox="0 0 47 43" fill="none" xmlns="http://www.w3.org/2000/svg">
<path d="M36.3885 23.7744V38.5027H5.14885V9.04607H16.3505C16.4621 7.5522 16.8414 6.14248 17.4216 4.83798H5.14885C2.6943 4.83798 0.686035 6.73162 0.686035 9.04607V38.5027C0.686035 40.8172 2.6943 42.7108 5.14885 42.7108H36.3885C38.8431 42.7108 40.8513 40.8172 40.8513 38.5027V27.9825L36.3885 23.7744ZM33.0414 34.2946H8.49595L14.6323 26.8673L19.0059 31.8329L25.1422 24.3846L33.0414 34.2946ZM39.2893 15.1268C40.2712 13.6539 40.8513 11.9497 40.8513 10.0981C40.8513 4.85902 36.3662 0.629883 30.81 0.629883C25.2538 0.629883 20.7687 4.85902 20.7687 10.0981C20.7687 15.3372 25.2538 19.5663 30.7877 19.5663C32.7513 19.5663 34.5811 19.0192 36.1207 18.0935L43.0827 24.6581L46.2513 21.6703L39.2893 15.1268ZM30.81 15.3582C27.7307 15.3582 25.2315 13.0017 25.2315 10.0981C25.2315 7.19451 27.7307 4.83798 30.81 4.83798C33.8893 4.83798 36.3885 7.19451 36.3885 10.0981C36.3885 13.0017 33.8893 15.3582 30.81 15.3582Z" fill="#747474"/>
</svg>
